<mxfile host="app.diagrams.net" modified="2021-04-03T08:43:27.643Z" agent="5.0 (Windows NT 10.0; Win64; x64) AppleWebKit/537.36 (KHTML, like Gecko) Chrome/89.0.4389.72 Safari/537.36 Edg/89.0.774.45" etag="zgdEvzY63ZdMNm639A3P" version="14.4.7" type="github">
  <diagram id="3R-CFx9wtKqNjH0kpR_z" name="Page-1">
    <mxGraphModel dx="1422" dy="794" grid="1" gridSize="10" guides="1" tooltips="1" connect="1" arrows="1" fold="1" page="1" pageScale="1" pageWidth="850" pageHeight="1100" math="0" shadow="0">
      <root>
        <mxCell id="0" />
        <mxCell id="1" parent="0" />
        <mxCell id="nRu0K-5B5R04oO93J2tk-1" value="CLUELESS" style="swimlane;html=1;childLayout=stackLayout;resizeParent=1;resizeParentMax=0;horizontal=0;startSize=20;horizontalStack=0;" vertex="1" parent="1">
          <mxGeometry x="120" y="120" width="717.5" height="760" as="geometry" />
        </mxCell>
        <mxCell id="nRu0K-5B5R04oO93J2tk-2" value="Player" style="swimlane;html=1;startSize=20;horizontal=0;fillColor=#ffe6cc;strokeColor=#d79b00;" vertex="1" parent="nRu0K-5B5R04oO93J2tk-1">
          <mxGeometry x="20" width="697.5" height="370" as="geometry" />
        </mxCell>
        <mxCell id="nRu0K-5B5R04oO93J2tk-3" value="" style="edgeStyle=orthogonalEdgeStyle;rounded=0;orthogonalLoop=1;jettySize=auto;html=1;entryX=0.25;entryY=0;entryDx=0;entryDy=0;" edge="1" parent="nRu0K-5B5R04oO93J2tk-2" source="nRu0K-5B5R04oO93J2tk-4" target="nRu0K-5B5R04oO93J2tk-5">
          <mxGeometry relative="1" as="geometry">
            <mxPoint x="120" y="60" as="targetPoint" />
          </mxGeometry>
        </mxCell>
        <mxCell id="nRu0K-5B5R04oO93J2tk-4" value="" style="ellipse;whiteSpace=wrap;html=1;fillColor=#000000;" vertex="1" parent="nRu0K-5B5R04oO93J2tk-2">
          <mxGeometry x="30" y="10" width="40" height="40" as="geometry" />
        </mxCell>
        <mxCell id="nRu0K-5B5R04oO93J2tk-5" value="&lt;span style=&quot;font-size: 18px&quot;&gt;Make&lt;/span&gt;&lt;br style=&quot;font-size: 18px&quot;&gt;&lt;span style=&quot;font-size: 18px&quot;&gt;Suggestion&lt;/span&gt;" style="rounded=1;whiteSpace=wrap;html=1;fillColor=#FFFFFF;" vertex="1" parent="nRu0K-5B5R04oO93J2tk-2">
          <mxGeometry x="30" y="90" width="120" height="60" as="geometry" />
        </mxCell>
        <mxCell id="nRu0K-5B5R04oO93J2tk-6" value="&lt;span style=&quot;font-size: 18px&quot;&gt;Refute Options&lt;/span&gt;" style="rounded=1;whiteSpace=wrap;html=1;fillColor=#FFFFFF;" vertex="1" parent="nRu0K-5B5R04oO93J2tk-2">
          <mxGeometry x="120" y="260" width="120" height="60" as="geometry" />
        </mxCell>
        <mxCell id="nRu0K-5B5R04oO93J2tk-9" value="" style="endArrow=classic;html=1;exitX=0.5;exitY=0;exitDx=0;exitDy=0;entryX=0.5;entryY=1;entryDx=0;entryDy=0;" edge="1" parent="nRu0K-5B5R04oO93J2tk-2" source="nRu0K-5B5R04oO93J2tk-6" target="nRu0K-5B5R04oO93J2tk-38">
          <mxGeometry width="50" height="50" relative="1" as="geometry">
            <mxPoint x="80" y="390" as="sourcePoint" />
            <mxPoint x="200" y="150" as="targetPoint" />
          </mxGeometry>
        </mxCell>
        <mxCell id="nRu0K-5B5R04oO93J2tk-11" value="" style="ellipse;whiteSpace=wrap;html=1;" vertex="1" parent="nRu0K-5B5R04oO93J2tk-2">
          <mxGeometry x="615" y="10" width="40" height="40" as="geometry" />
        </mxCell>
        <mxCell id="nRu0K-5B5R04oO93J2tk-12" value="" style="ellipse;whiteSpace=wrap;html=1;aspect=fixed;fillColor=#000000;" vertex="1" parent="nRu0K-5B5R04oO93J2tk-2">
          <mxGeometry x="625" y="20" width="20" height="20" as="geometry" />
        </mxCell>
        <mxCell id="nRu0K-5B5R04oO93J2tk-38" value="" style="rhombus;whiteSpace=wrap;html=1;direction=east;" vertex="1" parent="nRu0K-5B5R04oO93J2tk-2">
          <mxGeometry x="140" y="160" width="70" height="40" as="geometry" />
        </mxCell>
        <mxCell id="nRu0K-5B5R04oO93J2tk-41" value="&lt;font style=&quot;font-size: 18px&quot;&gt;Select&lt;br&gt;not to&lt;br&gt;Refute&lt;br&gt;&lt;/font&gt;" style="rounded=1;whiteSpace=wrap;html=1;fillColor=#FFFFFF;" vertex="1" parent="nRu0K-5B5R04oO93J2tk-2">
          <mxGeometry x="260" y="250" width="120" height="90" as="geometry" />
        </mxCell>
        <mxCell id="nRu0K-5B5R04oO93J2tk-40" value="" style="endArrow=classic;html=1;entryX=0;entryY=0.25;entryDx=0;entryDy=0;exitX=1;exitY=0.5;exitDx=0;exitDy=0;" edge="1" parent="nRu0K-5B5R04oO93J2tk-2" source="nRu0K-5B5R04oO93J2tk-38" target="nRu0K-5B5R04oO93J2tk-41">
          <mxGeometry width="50" height="50" relative="1" as="geometry">
            <mxPoint x="270" y="170" as="sourcePoint" />
            <mxPoint x="340" y="120" as="targetPoint" />
          </mxGeometry>
        </mxCell>
        <mxCell id="nRu0K-5B5R04oO93J2tk-42" value="&lt;span style=&quot;font-size: 14px&quot;&gt;[ player refutes suggestion ]&lt;/span&gt;" style="text;html=1;strokeColor=none;fillColor=none;align=center;verticalAlign=middle;whiteSpace=wrap;rounded=0;" vertex="1" parent="nRu0K-5B5R04oO93J2tk-2">
          <mxGeometry x="210" y="120" width="125" height="20" as="geometry" />
        </mxCell>
        <mxCell id="nRu0K-5B5R04oO93J2tk-43" value="&lt;font style=&quot;font-size: 18px&quot;&gt;Broadcast that Suggestion was Refuted&lt;br&gt;&lt;/font&gt;" style="rounded=1;whiteSpace=wrap;html=1;fillColor=#FFFFFF;" vertex="1" parent="nRu0K-5B5R04oO93J2tk-2">
          <mxGeometry x="320" y="130" width="170" height="60" as="geometry" />
        </mxCell>
        <mxCell id="nRu0K-5B5R04oO93J2tk-39" value="" style="endArrow=classic;html=1;exitX=0.5;exitY=0;exitDx=0;exitDy=0;entryX=0;entryY=0.5;entryDx=0;entryDy=0;" edge="1" parent="nRu0K-5B5R04oO93J2tk-2" source="nRu0K-5B5R04oO93J2tk-38" target="nRu0K-5B5R04oO93J2tk-43">
          <mxGeometry width="50" height="50" relative="1" as="geometry">
            <mxPoint x="550" y="190" as="sourcePoint" />
            <mxPoint x="235" y="70" as="targetPoint" />
          </mxGeometry>
        </mxCell>
        <mxCell id="nRu0K-5B5R04oO93J2tk-44" value="&lt;span style=&quot;font-size: 14px&quot;&gt;[ player does not refutes suggestion ]&lt;/span&gt;" style="text;html=1;strokeColor=none;fillColor=none;align=center;verticalAlign=middle;whiteSpace=wrap;rounded=0;" vertex="1" parent="nRu0K-5B5R04oO93J2tk-2">
          <mxGeometry x="247.5" y="210" width="125" height="20" as="geometry" />
        </mxCell>
        <mxCell id="nRu0K-5B5R04oO93J2tk-65" value="&lt;font style=&quot;font-size: 18px&quot;&gt;Broadcast Success&lt;br&gt;at Refuting Suggestion&lt;br&gt;&lt;/font&gt;" style="rounded=1;whiteSpace=wrap;html=1;fillColor=#FFFFFF;" vertex="1" parent="nRu0K-5B5R04oO93J2tk-2">
          <mxGeometry x="320" y="10" width="200" height="60" as="geometry" />
        </mxCell>
        <mxCell id="nRu0K-5B5R04oO93J2tk-67" value="&lt;font style=&quot;font-size: 18px&quot;&gt;Broadcast Failure&lt;br&gt;to Refute Suggestion&lt;br&gt;&lt;/font&gt;" style="rounded=1;whiteSpace=wrap;html=1;fillColor=#FFFFFF;" vertex="1" parent="nRu0K-5B5R04oO93J2tk-2">
          <mxGeometry x="530" y="170" width="157.5" height="60" as="geometry" />
        </mxCell>
        <mxCell id="nRu0K-5B5R04oO93J2tk-68" value="" style="endArrow=none;html=1;strokeWidth=5;" edge="1" parent="nRu0K-5B5R04oO93J2tk-2">
          <mxGeometry width="50" height="50" relative="1" as="geometry">
            <mxPoint x="550" y="20" as="sourcePoint" />
            <mxPoint x="640" y="90" as="targetPoint" />
            <Array as="points">
              <mxPoint x="593.75" y="70" />
            </Array>
          </mxGeometry>
        </mxCell>
        <mxCell id="nRu0K-5B5R04oO93J2tk-14" value="Network" style="swimlane;html=1;startSize=20;horizontal=0;fillColor=#d5e8d4;strokeColor=#82b366;" vertex="1" parent="nRu0K-5B5R04oO93J2tk-1">
          <mxGeometry x="20" y="370" width="697.5" height="150" as="geometry" />
        </mxCell>
        <mxCell id="nRu0K-5B5R04oO93J2tk-15" value="&lt;span style=&quot;font-size: 18px&quot;&gt;Player&lt;br&gt;&lt;/span&gt;&lt;font style=&quot;font-size: 18px&quot;&gt;Suggestion&lt;br&gt;Request&lt;br&gt;&lt;/font&gt;" style="rounded=1;whiteSpace=wrap;html=1;fillColor=#FFFFFF;" vertex="1" parent="nRu0K-5B5R04oO93J2tk-14">
          <mxGeometry x="30" y="10" width="120" height="60" as="geometry" />
        </mxCell>
        <mxCell id="nRu0K-5B5R04oO93J2tk-16" value="&lt;font style=&quot;font-size: 18px&quot;&gt;Next Player&lt;br&gt;Refute&lt;br&gt;Suggestion&lt;br&gt;Request&lt;br&gt;&lt;/font&gt;" style="rounded=1;whiteSpace=wrap;html=1;fillColor=#FFFFFF;" vertex="1" parent="nRu0K-5B5R04oO93J2tk-14">
          <mxGeometry x="160" y="10" width="120" height="90" as="geometry" />
        </mxCell>
        <mxCell id="nRu0K-5B5R04oO93J2tk-45" value="&lt;font style=&quot;font-size: 18px&quot;&gt;Player Failed to Refute Suggestion Response&lt;br&gt;&lt;/font&gt;" style="rounded=1;whiteSpace=wrap;html=1;fillColor=#FFFFFF;" vertex="1" parent="nRu0K-5B5R04oO93J2tk-14">
          <mxGeometry x="290" y="10" width="100" height="130" as="geometry" />
        </mxCell>
        <mxCell id="nRu0K-5B5R04oO93J2tk-46" value="&lt;font style=&quot;font-size: 18px&quot;&gt;Player Refuted Suggestion Response&lt;br&gt;&lt;/font&gt;" style="rounded=1;whiteSpace=wrap;html=1;fillColor=#FFFFFF;" vertex="1" parent="nRu0K-5B5R04oO93J2tk-14">
          <mxGeometry x="400" y="10" width="90" height="130" as="geometry" />
        </mxCell>
        <mxCell id="nRu0K-5B5R04oO93J2tk-58" value="&lt;font style=&quot;font-size: 18px&quot;&gt;Suggestion&lt;br&gt;Response&lt;br&gt;&lt;/font&gt;" style="rounded=1;whiteSpace=wrap;html=1;fillColor=#FFFFFF;" vertex="1" parent="nRu0K-5B5R04oO93J2tk-14">
          <mxGeometry x="600" y="10" width="90" height="70" as="geometry" />
        </mxCell>
        <mxCell id="nRu0K-5B5R04oO93J2tk-73" value="&lt;font style=&quot;font-size: 18px&quot;&gt;Suggestion&lt;br&gt;Response&lt;br&gt;&lt;/font&gt;" style="rounded=1;whiteSpace=wrap;html=1;fillColor=#FFFFFF;" vertex="1" parent="nRu0K-5B5R04oO93J2tk-14">
          <mxGeometry x="500" y="10" width="90" height="70" as="geometry" />
        </mxCell>
        <mxCell id="nRu0K-5B5R04oO93J2tk-18" value="" style="endArrow=classic;html=1;exitX=0.5;exitY=1;exitDx=0;exitDy=0;entryX=0.5;entryY=0;entryDx=0;entryDy=0;" edge="1" parent="nRu0K-5B5R04oO93J2tk-1" source="nRu0K-5B5R04oO93J2tk-15" target="nRu0K-5B5R04oO93J2tk-27">
          <mxGeometry width="50" height="50" relative="1" as="geometry">
            <mxPoint x="270" y="300" as="sourcePoint" />
            <mxPoint x="90" y="450" as="targetPoint" />
          </mxGeometry>
        </mxCell>
        <mxCell id="nRu0K-5B5R04oO93J2tk-19" value="" style="endArrow=classic;html=1;exitX=0.5;exitY=1;exitDx=0;exitDy=0;" edge="1" parent="nRu0K-5B5R04oO93J2tk-1" source="nRu0K-5B5R04oO93J2tk-5" target="nRu0K-5B5R04oO93J2tk-15">
          <mxGeometry width="50" height="50" relative="1" as="geometry">
            <mxPoint x="270" y="300" as="sourcePoint" />
            <mxPoint x="320" y="250" as="targetPoint" />
          </mxGeometry>
        </mxCell>
        <mxCell id="nRu0K-5B5R04oO93J2tk-32" value="" style="endArrow=classic;html=1;exitX=0.5;exitY=0;exitDx=0;exitDy=0;entryX=0.5;entryY=1;entryDx=0;entryDy=0;" edge="1" parent="nRu0K-5B5R04oO93J2tk-1" source="nRu0K-5B5R04oO93J2tk-26" target="nRu0K-5B5R04oO93J2tk-16">
          <mxGeometry width="50" height="50" relative="1" as="geometry">
            <mxPoint x="300" y="480" as="sourcePoint" />
            <mxPoint x="380" y="270" as="targetPoint" />
            <Array as="points" />
          </mxGeometry>
        </mxCell>
        <mxCell id="nRu0K-5B5R04oO93J2tk-33" value="" style="endArrow=classic;html=1;exitX=0.5;exitY=0;exitDx=0;exitDy=0;entryX=0.5;entryY=1;entryDx=0;entryDy=0;" edge="1" parent="nRu0K-5B5R04oO93J2tk-1" source="nRu0K-5B5R04oO93J2tk-16" target="nRu0K-5B5R04oO93J2tk-6">
          <mxGeometry width="50" height="50" relative="1" as="geometry">
            <mxPoint x="160" y="280" as="sourcePoint" />
            <mxPoint x="320" y="270" as="targetPoint" />
          </mxGeometry>
        </mxCell>
        <mxCell id="nRu0K-5B5R04oO93J2tk-20" value="Back End" style="swimlane;html=1;startSize=20;horizontal=0;fillColor=#dae8fc;strokeColor=#6c8ebf;" vertex="1" parent="nRu0K-5B5R04oO93J2tk-1">
          <mxGeometry x="20" y="520" width="697.5" height="240" as="geometry" />
        </mxCell>
        <mxCell id="nRu0K-5B5R04oO93J2tk-26" value="&lt;span style=&quot;font-size: 18px&quot;&gt;Notify&lt;br&gt;&lt;/span&gt;&lt;font style=&quot;font-size: 18px&quot;&gt;Network&lt;/font&gt;" style="rounded=1;whiteSpace=wrap;html=1;fillColor=#FFFFFF;" vertex="1" parent="nRu0K-5B5R04oO93J2tk-20">
          <mxGeometry x="170" y="10" width="120" height="60" as="geometry" />
        </mxCell>
        <mxCell id="nRu0K-5B5R04oO93J2tk-27" value="&lt;span style=&quot;font-size: 18px&quot;&gt;Identify Next&lt;br&gt;&lt;/span&gt;&lt;font style=&quot;font-size: 18px&quot;&gt;Player for Proof&lt;br&gt;Against Suggestion&lt;/font&gt;" style="rounded=1;whiteSpace=wrap;html=1;fillColor=#FFFFFF;" vertex="1" parent="nRu0K-5B5R04oO93J2tk-20">
          <mxGeometry x="30" y="20" width="120" height="110" as="geometry" />
        </mxCell>
        <mxCell id="nRu0K-5B5R04oO93J2tk-29" value="" style="endArrow=classic;html=1;entryX=0;entryY=0.5;entryDx=0;entryDy=0;exitX=1;exitY=0.25;exitDx=0;exitDy=0;" edge="1" parent="nRu0K-5B5R04oO93J2tk-20" source="nRu0K-5B5R04oO93J2tk-27" target="nRu0K-5B5R04oO93J2tk-26">
          <mxGeometry width="50" height="50" relative="1" as="geometry">
            <mxPoint x="340" y="50" as="sourcePoint" />
            <mxPoint x="320" y="40" as="targetPoint" />
            <Array as="points" />
          </mxGeometry>
        </mxCell>
        <mxCell id="nRu0K-5B5R04oO93J2tk-30" value="&lt;span style=&quot;font-size: 18px&quot;&gt;Notify&lt;br&gt;&lt;/span&gt;&lt;font style=&quot;font-size: 18px&quot;&gt;Network&lt;/font&gt;" style="rounded=1;whiteSpace=wrap;html=1;fillColor=#FFFFFF;" vertex="1" parent="nRu0K-5B5R04oO93J2tk-20">
          <mxGeometry x="570" y="20" width="120" height="60" as="geometry" />
        </mxCell>
        <mxCell id="nRu0K-5B5R04oO93J2tk-50" value="" style="rhombus;whiteSpace=wrap;html=1;direction=east;" vertex="1" parent="nRu0K-5B5R04oO93J2tk-20">
          <mxGeometry x="310" y="70" width="70" height="40" as="geometry" />
        </mxCell>
        <mxCell id="nRu0K-5B5R04oO93J2tk-51" value="" style="endArrow=classic;html=1;exitX=0;exitY=0.5;exitDx=0;exitDy=0;entryX=1;entryY=0.75;entryDx=0;entryDy=0;" edge="1" parent="nRu0K-5B5R04oO93J2tk-20" source="nRu0K-5B5R04oO93J2tk-50" target="nRu0K-5B5R04oO93J2tk-27">
          <mxGeometry width="50" height="50" relative="1" as="geometry">
            <mxPoint x="285" y="200" as="sourcePoint" />
            <mxPoint x="245" y="140" as="targetPoint" />
          </mxGeometry>
        </mxCell>
        <mxCell id="nRu0K-5B5R04oO93J2tk-52" value="&lt;span style=&quot;font-size: 14px&quot;&gt;[ not all players&lt;br&gt;have been consulted ]&lt;/span&gt;" style="text;html=1;strokeColor=none;fillColor=none;align=center;verticalAlign=middle;whiteSpace=wrap;rounded=0;" vertex="1" parent="nRu0K-5B5R04oO93J2tk-20">
          <mxGeometry x="170" y="120" width="125" height="20" as="geometry" />
        </mxCell>
        <mxCell id="nRu0K-5B5R04oO93J2tk-55" value="&lt;span style=&quot;font-size: 14px&quot;&gt;[ all players&amp;nbsp;&lt;br&gt;have been consulted ]&lt;/span&gt;" style="text;html=1;strokeColor=none;fillColor=none;align=center;verticalAlign=middle;whiteSpace=wrap;rounded=0;" vertex="1" parent="nRu0K-5B5R04oO93J2tk-20">
          <mxGeometry x="330" y="150" width="125" height="20" as="geometry" />
        </mxCell>
        <mxCell id="nRu0K-5B5R04oO93J2tk-72" value="&lt;span style=&quot;font-size: 18px&quot;&gt;Notify&lt;br&gt;&lt;/span&gt;&lt;font style=&quot;font-size: 18px&quot;&gt;Network&lt;/font&gt;" style="rounded=1;whiteSpace=wrap;html=1;fillColor=#FFFFFF;" vertex="1" parent="nRu0K-5B5R04oO93J2tk-20">
          <mxGeometry x="450" y="60" width="120" height="60" as="geometry" />
        </mxCell>
        <mxCell id="nRu0K-5B5R04oO93J2tk-57" value="" style="endArrow=classic;html=1;entryX=0.5;entryY=1;entryDx=0;entryDy=0;" edge="1" parent="nRu0K-5B5R04oO93J2tk-20" target="nRu0K-5B5R04oO93J2tk-30">
          <mxGeometry width="50" height="50" relative="1" as="geometry">
            <mxPoint x="500" y="200" as="sourcePoint" />
            <mxPoint x="580" y="140" as="targetPoint" />
            <Array as="points">
              <mxPoint x="500" y="230" />
              <mxPoint x="580" y="230" />
            </Array>
          </mxGeometry>
        </mxCell>
        <mxCell id="nRu0K-5B5R04oO93J2tk-76" value="&lt;span style=&quot;font-size: 18px&quot;&gt;Update Suggestion Status&lt;/span&gt;" style="rounded=1;whiteSpace=wrap;html=1;fillColor=#FFFFFF;" vertex="1" parent="nRu0K-5B5R04oO93J2tk-20">
          <mxGeometry x="440" y="140" width="120" height="60" as="geometry" />
        </mxCell>
        <mxCell id="nRu0K-5B5R04oO93J2tk-77" value="" style="endArrow=classic;html=1;exitX=1;exitY=0.5;exitDx=0;exitDy=0;entryX=0.25;entryY=0;entryDx=0;entryDy=0;" edge="1" parent="nRu0K-5B5R04oO93J2tk-20" source="nRu0K-5B5R04oO93J2tk-50" target="nRu0K-5B5R04oO93J2tk-76">
          <mxGeometry width="50" height="50" relative="1" as="geometry">
            <mxPoint x="350" as="sourcePoint" />
            <mxPoint x="355" y="80" as="targetPoint" />
            <Array as="points" />
          </mxGeometry>
        </mxCell>
        <mxCell id="nRu0K-5B5R04oO93J2tk-78" value="&lt;span style=&quot;font-size: 18px&quot;&gt;Update Suggestion Status&lt;/span&gt;" style="rounded=1;whiteSpace=wrap;html=1;fillColor=#FFFFFF;" vertex="1" parent="nRu0K-5B5R04oO93J2tk-20">
          <mxGeometry x="350" y="10" width="150" height="40" as="geometry" />
        </mxCell>
        <mxCell id="nRu0K-5B5R04oO93J2tk-79" value="" style="endArrow=classic;html=1;entryX=0;entryY=0.5;entryDx=0;entryDy=0;exitX=0.5;exitY=1;exitDx=0;exitDy=0;" edge="1" parent="nRu0K-5B5R04oO93J2tk-20" source="nRu0K-5B5R04oO93J2tk-78" target="nRu0K-5B5R04oO93J2tk-72">
          <mxGeometry width="50" height="50" relative="1" as="geometry">
            <mxPoint x="260" y="-110" as="sourcePoint" />
            <mxPoint x="310" y="-160" as="targetPoint" />
          </mxGeometry>
        </mxCell>
        <mxCell id="nRu0K-5B5R04oO93J2tk-47" value="" style="endArrow=classic;html=1;entryX=0.25;entryY=0;entryDx=0;entryDy=0;exitX=0.5;exitY=1;exitDx=0;exitDy=0;" edge="1" parent="nRu0K-5B5R04oO93J2tk-1" source="nRu0K-5B5R04oO93J2tk-43" target="nRu0K-5B5R04oO93J2tk-46">
          <mxGeometry width="50" height="50" relative="1" as="geometry">
            <mxPoint x="240" y="190" as="sourcePoint" />
            <mxPoint x="290" y="282.5" as="targetPoint" />
          </mxGeometry>
        </mxCell>
        <mxCell id="nRu0K-5B5R04oO93J2tk-48" value="" style="endArrow=classic;html=1;exitX=0.5;exitY=1;exitDx=0;exitDy=0;entryX=0.25;entryY=0;entryDx=0;entryDy=0;" edge="1" parent="nRu0K-5B5R04oO93J2tk-1" source="nRu0K-5B5R04oO93J2tk-41" target="nRu0K-5B5R04oO93J2tk-45">
          <mxGeometry width="50" height="50" relative="1" as="geometry">
            <mxPoint x="210" y="270" as="sourcePoint" />
            <mxPoint x="205" y="210" as="targetPoint" />
          </mxGeometry>
        </mxCell>
        <mxCell id="nRu0K-5B5R04oO93J2tk-49" value="" style="endArrow=classic;html=1;exitX=0.5;exitY=1;exitDx=0;exitDy=0;entryX=0.5;entryY=0;entryDx=0;entryDy=0;" edge="1" parent="nRu0K-5B5R04oO93J2tk-1" source="nRu0K-5B5R04oO93J2tk-45" target="nRu0K-5B5R04oO93J2tk-50">
          <mxGeometry width="50" height="50" relative="1" as="geometry">
            <mxPoint x="260" y="540" as="sourcePoint" />
            <mxPoint x="370" y="540" as="targetPoint" />
            <Array as="points" />
          </mxGeometry>
        </mxCell>
        <mxCell id="nRu0K-5B5R04oO93J2tk-59" value="" style="endArrow=classic;html=1;exitX=0.5;exitY=0;exitDx=0;exitDy=0;entryX=0.5;entryY=1;entryDx=0;entryDy=0;" edge="1" parent="nRu0K-5B5R04oO93J2tk-1" source="nRu0K-5B5R04oO93J2tk-30" target="nRu0K-5B5R04oO93J2tk-58">
          <mxGeometry width="50" height="50" relative="1" as="geometry">
            <mxPoint x="650" y="555" as="sourcePoint" />
            <mxPoint x="650" y="665" as="targetPoint" />
            <Array as="points" />
          </mxGeometry>
        </mxCell>
        <mxCell id="nRu0K-5B5R04oO93J2tk-74" value="" style="endArrow=classic;html=1;exitX=0.5;exitY=0;exitDx=0;exitDy=0;entryX=0.5;entryY=1;entryDx=0;entryDy=0;" edge="1" parent="nRu0K-5B5R04oO93J2tk-1" source="nRu0K-5B5R04oO93J2tk-72" target="nRu0K-5B5R04oO93J2tk-73">
          <mxGeometry width="50" height="50" relative="1" as="geometry">
            <mxPoint x="660" y="550" as="sourcePoint" />
            <mxPoint x="675" y="460" as="targetPoint" />
            <Array as="points" />
          </mxGeometry>
        </mxCell>
        <mxCell id="nRu0K-5B5R04oO93J2tk-60" value="" style="endArrow=classic;html=1;exitX=0.5;exitY=0;exitDx=0;exitDy=0;entryX=0.686;entryY=1;entryDx=0;entryDy=0;entryPerimeter=0;" edge="1" parent="nRu0K-5B5R04oO93J2tk-1" source="nRu0K-5B5R04oO93J2tk-58" target="nRu0K-5B5R04oO93J2tk-67">
          <mxGeometry width="50" height="50" relative="1" as="geometry">
            <mxPoint x="465" y="210" as="sourcePoint" />
            <mxPoint x="600" y="280" as="targetPoint" />
          </mxGeometry>
        </mxCell>
        <mxCell id="nRu0K-5B5R04oO93J2tk-75" value="" style="endArrow=classic;html=1;exitX=0.5;exitY=0;exitDx=0;exitDy=0;entryX=0.905;entryY=1;entryDx=0;entryDy=0;entryPerimeter=0;" edge="1" parent="nRu0K-5B5R04oO93J2tk-1" source="nRu0K-5B5R04oO93J2tk-73" target="nRu0K-5B5R04oO93J2tk-65">
          <mxGeometry width="50" height="50" relative="1" as="geometry">
            <mxPoint x="530" y="550" as="sourcePoint" />
            <mxPoint x="575" y="460" as="targetPoint" />
            <Array as="points" />
          </mxGeometry>
        </mxCell>
        <mxCell id="nRu0K-5B5R04oO93J2tk-53" value="" style="endArrow=classic;html=1;exitX=0.25;exitY=1;exitDx=0;exitDy=0;" edge="1" parent="nRu0K-5B5R04oO93J2tk-1" source="nRu0K-5B5R04oO93J2tk-46" target="nRu0K-5B5R04oO93J2tk-78">
          <mxGeometry width="50" height="50" relative="1" as="geometry">
            <mxPoint x="380" y="480" as="sourcePoint" />
            <mxPoint x="480" y="740" as="targetPoint" />
            <Array as="points" />
          </mxGeometry>
        </mxCell>
        <mxCell id="nRu0K-5B5R04oO93J2tk-69" value="" style="endArrow=classic;html=1;exitX=0.5;exitY=0;exitDx=0;exitDy=0;" edge="1" parent="1" source="nRu0K-5B5R04oO93J2tk-67">
          <mxGeometry width="50" height="50" relative="1" as="geometry">
            <mxPoint x="730" y="370" as="sourcePoint" />
            <mxPoint x="729" y="190" as="targetPoint" />
          </mxGeometry>
        </mxCell>
        <mxCell id="nRu0K-5B5R04oO93J2tk-70" value="" style="endArrow=classic;html=1;exitX=1;exitY=0.5;exitDx=0;exitDy=0;" edge="1" parent="1" source="nRu0K-5B5R04oO93J2tk-65">
          <mxGeometry width="50" height="50" relative="1" as="geometry">
            <mxPoint x="699.375" y="230" as="sourcePoint" />
            <mxPoint x="720" y="180" as="targetPoint" />
          </mxGeometry>
        </mxCell>
        <mxCell id="nRu0K-5B5R04oO93J2tk-71" value="" style="endArrow=classic;html=1;entryX=0;entryY=1;entryDx=0;entryDy=0;" edge="1" parent="1" target="nRu0K-5B5R04oO93J2tk-11">
          <mxGeometry width="50" height="50" relative="1" as="geometry">
            <mxPoint x="730" y="180" as="sourcePoint" />
            <mxPoint x="739" y="200" as="targetPoint" />
          </mxGeometry>
        </mxCell>
      </root>
    </mxGraphModel>
  </diagram>
</mxfile>
